<?xml version="1.0" encoding="iso-8859-1"?>
<!-- Generator: Adobe Illustrator 19.0.0, SVG Export Plug-In . SVG Version: 6.00 Build 0)  -->
<svg version="1.1" id="Capa_1" xmlns="http://www.w3.org/2000/svg" xmlns:xlink="http://www.w3.org/1999/xlink" x="0px" y="0px"
	 viewBox="0 0 490.667 490.667" style="enable-background:new 0 0 490.667 490.667;" xml:space="preserve">
<path style="fill:#FFC107;" d="M245.333,0C109.839,0,0,109.839,0,245.333s109.839,245.333,245.333,245.333
	s245.333-109.839,245.333-245.333C490.514,109.903,380.764,0.153,245.333,0z"/>
<g>
	<path style="fill:#FAFAFA;" d="M256,362.667h-74.667c-5.891,0-10.667-4.776-10.667-10.667V138.667
		c0-5.891,4.776-10.667,10.667-10.667H256c35.346,0.015,63.987,28.682,63.972,64.028c-0.009,21.441-10.755,41.453-28.623,53.305
		c29.455,19.538,37.494,59.255,17.956,88.711C297.453,351.912,277.441,362.657,256,362.667z M192,341.333h64
		c23.564,0,42.667-19.103,42.667-42.667S279.564,256,256,256h-64V341.333z M192,234.667h64c23.564,0,42.667-19.103,42.667-42.667
		S279.564,149.333,256,149.333h-64V234.667z"/>
	<path style="fill:#FAFAFA;" d="M202.667,149.333c-5.891,0-10.667-4.776-10.667-10.667v-21.333c0-5.891,4.776-10.667,10.667-10.667
		s10.667,4.776,10.667,10.667v21.333C213.333,144.558,208.558,149.333,202.667,149.333z"/>
	<path style="fill:#FAFAFA;" d="M245.333,149.333c-5.891,0-10.667-4.776-10.667-10.667v-21.333c0-5.891,4.776-10.667,10.667-10.667
		c5.891,0,10.667,4.776,10.667,10.667v21.333C256,144.558,251.224,149.333,245.333,149.333z"/>
	<path style="fill:#FAFAFA;" d="M202.667,384c-5.891,0-10.667-4.776-10.667-10.667V352c0-5.891,4.776-10.667,10.667-10.667
		s10.667,4.776,10.667,10.667v21.333C213.333,379.224,208.558,384,202.667,384z"/>
	<path style="fill:#FAFAFA;" d="M245.333,384c-5.891,0-10.667-4.776-10.667-10.667V352c0-5.891,4.776-10.667,10.667-10.667
		c5.891,0,10.667,4.776,10.667,10.667v21.333C256,379.224,251.224,384,245.333,384z"/>
</g>
<g>
</g>
<g>
</g>
<g>
</g>
<g>
</g>
<g>
</g>
<g>
</g>
<g>
</g>
<g>
</g>
<g>
</g>
<g>
</g>
<g>
</g>
<g>
</g>
<g>
</g>
<g>
</g>
<g>
</g>
</svg>
