<svg id="Layer_1" data-name="Layer 1" xmlns="http://www.w3.org/2000/svg" viewBox="0 0 378.1 312.85"><defs><style>.cls-1{fill:#b19046;}.cls-1,.cls-10,.cls-2,.cls-9{fill-rule:evenodd;}.cls-2{fill:#f3d55b;}.cls-3{fill:#efcd16;}.cls-4{fill:#fede51;}.cls-5{fill:#fee994;}.cls-6{fill:#faa41a;}.cls-7{fill:#febd11;}.cls-8{fill:#f68f1f;}.cls-9{fill:#405d6c;}.cls-10{fill:#557681;}</style></defs><title>Untitled-1</title><g id="Page-1"><path class="cls-1" d="M460.18,461.52a5.63,5.63,0,0,1-5.63-5.63v-68.2a5.64,5.64,0,0,1,11.27,0v68.2A5.64,5.64,0,0,1,460.18,461.52Z" transform="translate(-120.96 -307.94)"/><path class="cls-2" d="M460.18,443.69A11.27,11.27,0,0,1,471.45,455v11.26a5.63,5.63,0,0,1-5.63,5.63H454.55a5.63,5.63,0,0,1-5.63-5.63V455A11.26,11.26,0,0,1,460.18,443.69Z" transform="translate(-120.96 -307.94)"/></g><path class="cls-3" d="M413.94,516.89a104.1,104.1,0,1,1-33.56-76.45A103.89,103.89,0,0,1,413.94,516.89Z" transform="translate(-120.96 -307.94)"/><path class="cls-4" d="M413.94,516.89a103.89,103.89,0,0,1-100,103.83,103.9,103.9,0,0,1,0-207.65A103.89,103.89,0,0,1,413.94,516.89Z" transform="translate(-120.96 -307.94)"/><path class="cls-5" d="M380.38,440.44,233.59,587.23a103.63,103.63,0,0,1-13.16-17.74L362.64,427.28A103.11,103.11,0,0,1,380.38,440.44Z" transform="translate(-120.96 -307.94)"/><path class="cls-5" d="M406.78,478.91,272.06,613.63a103.51,103.51,0,0,1-26.3-15.12L391.67,452.6A104,104,0,0,1,406.78,478.91Z" transform="translate(-120.96 -307.94)"/><path class="cls-6" d="M390.78,516.89a80.73,80.73,0,0,1-161.46,1v-1a80.73,80.73,0,0,1,80.73-80.73h1a80.4,80.4,0,0,1,45.51,14.72,81.48,81.48,0,0,1,22.25,23.66A80.32,80.32,0,0,1,390.78,516.89Z" transform="translate(-120.96 -307.94)"/><path class="cls-7" d="M367.13,459.81,253,574a80.49,80.49,0,0,1-23.64-56.09v-1a80.73,80.73,0,0,1,80.73-80.73h1a80.4,80.4,0,0,1,45.51,14.72A81.33,81.33,0,0,1,367.13,459.81Z" transform="translate(-120.96 -307.94)"/><path class="cls-8" d="M390.78,516.89a80.74,80.74,0,0,1-80.73,80.74c-1.54,0-3.05,0-4.56-.13a80.73,80.73,0,0,0,0-161.21c1.51-.09,3-.13,4.56-.13A80.74,80.74,0,0,1,390.78,516.89Z" transform="translate(-120.96 -307.94)"/><path class="cls-9" d="M205.7,414.86l-80-28.36a7.31,7.31,0,0,1,0-13.69l182-64.48a6.86,6.86,0,0,1,4.56,0l182,64.48a7.31,7.31,0,0,1,0,13.69l-80,28.36Z" transform="translate(-120.96 -307.94)"/><path class="cls-10" d="M414.32,404.69V506.78H205.7V404.69a19.44,19.44,0,0,1,12.13-18.06c14.41-5.74,43-13.5,92.18-13.5s77.78,7.76,92.18,13.5A19.44,19.44,0,0,1,414.32,404.69Z" transform="translate(-120.96 -307.94)"/><path class="cls-8" d="M346.74,531.28a30.74,30.74,0,0,0-14-25.75,28.82,28.82,0,0,0-9.53-42.24V452.84a8.48,8.48,0,0,0-17,0v6.91H296.05v-6.91a8.49,8.49,0,0,0-17,0v6.91h-10a8.48,8.48,0,0,0,0,17H272v68.37h-2.92a8.48,8.48,0,0,0,0,17h10V569a8.49,8.49,0,0,0,17,0V562h10.23V569a8.49,8.49,0,0,0,17,0v-7.79A30.8,30.8,0,0,0,346.74,531.28ZM289,476.71H309.4a11.91,11.91,0,0,1,0,23.81H289V476.71Zm27,68.37H289v-27.6h27a13.8,13.8,0,0,1,0,27.6Z" transform="translate(-120.96 -307.94)"/><path class="cls-5" d="M357.34,531.28a30.74,30.74,0,0,0-14-25.75,28.82,28.82,0,0,0-9.52-42.24V452.84a8.49,8.49,0,0,0-17,0v6.91H306.65v-6.91a8.48,8.48,0,1,0-17,0v6.91h-10a8.48,8.48,0,0,0,0,17h2.93v68.37h-2.93a8.48,8.48,0,0,0,0,17h10V569a8.48,8.48,0,1,0,17,0V562h10.23V569a8.49,8.49,0,0,0,17,0v-7.79A30.8,30.8,0,0,0,357.34,531.28Zm-57.73-54.57H320a11.91,11.91,0,1,1,0,23.81H299.61Zm27,68.37h-27v-27.6h27a13.8,13.8,0,1,1,0,27.6Z" transform="translate(-120.96 -307.94)"/></svg>